HIERARCHY
ROOT Hips
{
 OFFSET 0.000000 0.000000 0.000000
 CHANNELS 6 Xposition Yposition Zposition Yrotation Xrotation Zrotation
 JOINT Chest
 {
  OFFSET 0.000000 11.395451 -0.039534
  CHANNELS 3 Yrotation Xrotation Zrotation
  JOINT Chest2
  {
   OFFSET 0.000000 9.398669 0.071813
   CHANNELS 3 Yrotation Xrotation Zrotation
   JOINT Chest3
   {
    OFFSET 0.000000 8.489801 0.000000
    CHANNELS 3 Yrotation Xrotation Zrotation
    JOINT Chest4
    {
     OFFSET 0.000000 8.489801 0.000000
     CHANNELS 3 Yrotation Xrotation Zrotation
     JOINT Neck
     {
      OFFSET 0.000000 12.404889 0.000000
      CHANNELS 3 Yrotation Xrotation Zrotation
      JOINT Head
      {
       OFFSET 0.000000 8.903270 0.092239
       CHANNELS 3 Yrotation Xrotation Zrotation
       End Site
       {
        OFFSET 0.000000 17.592497 0.007158
       }
      }
     }
     JOINT RightCollar
     {
      OFFSET -3.196775 6.966722 0.000000
      CHANNELS 3 Yrotation Xrotation Zrotation
      JOINT RightShoulder
      {
       OFFSET -15.955896 0.000000 0.000000
       CHANNELS 3 Yrotation Xrotation Zrotation
       JOINT RightElbow
       {
        OFFSET -24.792472 0.000000 0.000000
        CHANNELS 3 Yrotation Xrotation Zrotation
        JOINT RightWrist
        {
         OFFSET -20.900115 0.000000 0.025002
         CHANNELS 3 Yrotation Xrotation Zrotation
         End Site
         {
          OFFSET -16.056692 0.000000 0.000000
         }
        }
       }
      }
     }
     JOINT LeftCollar
     {
      OFFSET 3.196775 6.966722 0.000000
      CHANNELS 3 Yrotation Xrotation Zrotation
      JOINT LeftShoulder
      {
       OFFSET 15.955896 0.000000 0.000000
       CHANNELS 3 Yrotation Xrotation Zrotation
       JOINT LeftElbow
       {
        OFFSET 24.792472 0.000000 0.000000
        CHANNELS 3 Yrotation Xrotation Zrotation
        JOINT LeftWrist
        {
         OFFSET 20.900115 0.000000 0.025002
         CHANNELS 3 Yrotation Xrotation Zrotation
         End Site
         {
          OFFSET 16.056692 0.000000 0.000000
         }
        }
       }
      }
     }
    }
   }
  }
 }
 JOINT RightHip
 {
  OFFSET -9.568995 0.193718 0.019767
  CHANNELS 3 Yrotation Xrotation Zrotation
  JOINT RightKnee
  {
   OFFSET 0.000000 -56.649296 0.015402
   CHANNELS 3 Yrotation Xrotation Zrotation
   JOINT RightAnkle
   {
    OFFSET 0.000000 -41.365147 0.021264
    CHANNELS 3 Yrotation Xrotation Zrotation
    JOINT RightToe
    {
     OFFSET 0.000000 -7.465940 17.672538
     CHANNELS 3 Yrotation Xrotation Zrotation
     End Site
     {
      OFFSET 0.000000 -1.736315 7.837145
     }
    }
   }
  }
 }
 JOINT LeftHip
 {
  OFFSET 9.568995 0.193718 0.019767
  CHANNELS 3 Yrotation Xrotation Zrotation
  JOINT LeftKnee
  {
   OFFSET 0.000000 -56.649296 0.015402
   CHANNELS 3 Yrotation Xrotation Zrotation
   JOINT LeftAnkle
   {
    OFFSET 0.000000 -41.365147 0.021264
    CHANNELS 3 Yrotation Xrotation Zrotation
    JOINT LeftToe
    {
     OFFSET 0.000000 -7.465940 17.672538
     CHANNELS 3 Yrotation Xrotation Zrotation
     End Site
     {
      OFFSET 0.000000 -1.736315 7.837145
     }
    }
   }
  }
 }
}
MOTION
Frames: 14
Frame Time: 0.016667
-91.906334 47.373653 166.732706 50.833548 1.100993 6.716544 1.722021 7.853805 1.160707 0.743801 3.494833 0.485415 0.743801 3.494827 0.485417 0.554898 2.621715 0.359694 16.872234 20.962185 -8.056393 32.688575 6.640151 -18.931268 10.245835 5.064015 7.295551 0.326201 -16.432753 63.470300 2.297527 14.622010 0.609975 0.684838 -1.235262 1.672729 -0.874281 8.473792 -9.642092 -8.701722 -22.281195 -76.570537 -10.809773 6.385425 3.938717 0.408836 2.003640 -1.526931 -37.375643 -16.369854 -10.495189 -21.642057 12.563710 -0.850788 -18.368504 0.063262 1.039716 0.000000 0.000000 0.000000 19.922623 -10.752875 -1.004267 18.438677 21.258177 2.477424 13.604118 -3.118105 -5.903431 0.000000 0.000000 0.000000
-91.100208 47.173331 165.786866 51.262708 0.782691 6.431952 1.953351 7.875538 1.301048 0.843905 3.505654 0.543612 0.843900 3.505651 0.543614 0.629603 2.629996 0.402739 16.785754 21.032822 -7.903479 32.483259 6.691929 -18.624609 10.076445 5.130991 7.238143 1.785166 -16.522919 63.477101 1.032964 16.136989 0.045926 0.469820 -0.854120 2.318643 -0.803113 8.431787 -9.645940 -8.333611 -21.949146 -76.880337 -11.537573 6.632195 3.279636 -0.133428 1.735364 -1.021810 -37.509748 -16.385463 -11.062394 -21.477447 12.611031 -0.969063 -18.382532 0.792642 1.628716 0.000000 0.000000 0.000000 19.695556 -10.531929 -1.300813 18.242522 21.356813 2.319422 13.904259 -4.215047 -4.536214 0.000000 0.000000 0.000000
-90.251745 46.959583 164.851638 51.670985 0.394850 6.171986 2.168635 7.891274 1.397046 0.937668 3.513699 0.582427 0.937668 3.513699 0.582427 0.699679 2.636178 0.431287 16.700416 21.087721 -7.714880 32.274497 6.704268 -18.259798 9.865807 5.208701 7.171007 3.021669 -16.696499 63.648758 -0.020522 17.690177 -0.589866 0.300292 -0.474897 2.838398 -0.733021 8.412285 -9.636000 -7.967022 -21.638950 -77.137386 -11.857726 7.016503 2.756629 -0.460338 1.608947 -0.733252 -37.622433 -16.411926 -11.690274 -21.275490 12.774277 -1.123182 -18.111235 1.316110 2.059529 0.000000 0.000000 0.000000 19.622838 -10.172561 -1.575856 17.433548 21.457238 2.101802 14.309213 -5.170177 -3.595197 0.000000 0.000000 0.000000
-89.345301 46.708347 163.948612 52.037277 -0.089150 5.937930 2.378826 7.905655 1.435522 1.030146 3.520942 0.595829 1.030145 3.520961 0.595836 0.768929 2.641748 0.440802 16.608149 21.108092 -7.481235 32.049526 6.638824 -17.822887 9.621916 5.302185 7.095276 3.876719 -16.950780 64.092448 -0.761500 19.363392 -1.371627 0.149488 -0.091783 3.119505 -0.666912 8.417895 -9.603804 -7.594629 -21.363144 -77.326550 -11.710189 7.601469 2.413265 -0.401154 1.705383 -0.778892 -37.824929 -16.460597 -12.376363 -20.976792 13.068329 -1.286516 -17.340493 1.713066 2.204673 0.000000 0.000000 0.000000 19.958814 -9.611718 -1.776871 15.510110 21.616709 1.745812 15.008712 -5.992377 -3.509614 -0.000534 0.052738 -0.001550
-88.396522 46.443684 163.056198 52.383163 -0.643579 5.727515 2.573625 7.916123 1.430302 1.116548 3.526183 0.590131 1.116539 3.526216 0.590143 0.833726 2.645774 0.436029 16.514968 21.113065 -7.213690 31.817714 6.536465 -17.329123 9.337638 5.408252 7.008489 4.500636 -17.299086 64.702557 -1.302763 21.088273 -2.244071 0.012809 0.285369 3.275358 -0.601624 8.445092 -9.556467 -7.222443 -21.114034 -77.464746 -11.161054 8.333037 2.240336 -0.110932 1.932601 -1.029990 -38.001585 -16.521924 -13.125251 -20.637754 13.477969 -1.480496 -16.286752 1.899729 2.201761 0.000000 0.000000 0.000000 20.449372 -8.915787 -1.942058 12.974784 21.778597 1.339793 15.839642 -6.669026 -3.843379 -0.000692 0.105450 -0.003820
-87.446853 46.230577 162.141332 52.884171 -1.204319 5.612828 2.693634 7.911717 1.385611 1.170547 3.524279 0.568279 1.170547 3.524279 0.568279 0.874354 2.644311 0.419319 16.389065 21.146442 -6.980882 31.529356 6.489121 -16.882360 9.053034 5.511296 6.917007 4.855741 -17.680054 65.339493 -1.498603 22.358538 -2.864729 -0.026586 0.476178 3.271612 -0.556882 8.502506 -9.541733 -6.937299 -20.947147 -77.553649 -10.277634 9.111926 2.278734 0.214469 2.176115 -1.291257 -37.847437 -16.628176 -14.018518 -20.406364 14.096139 -1.762575 -15.510662 1.392655 2.184297 0.000000 0.000000 0.000000 20.397213 -8.175349 -2.254557 11.174398 21.844049 1.059825 16.569040 -7.290545 -4.020033 0.000000 0.000000 0.000000
-86.503289 46.096349 161.178052 53.610761 -1.749018 5.661179 2.709812 7.885527 1.272883 1.179763 3.512010 0.518180 1.179780 3.511999 0.518171 0.881589 2.635008 0.381714 16.212434 21.224153 -6.799577 31.153505 6.525309 -16.504961 8.766532 5.617634 6.815731 4.817039 -18.123055 66.012085 -1.194929 22.988298 -3.095182 0.047326 0.383743 3.025611 -0.535279 8.610562 -9.580713 -6.802512 -20.918413 -77.557908 -9.005872 9.964000 2.569054 0.531748 2.410835 -1.543110 -37.265258 -16.833603 -15.133901 -20.385203 15.074966 -2.174302 -15.572342 -0.253839 2.124274 0.000000 0.000000 0.000000 19.417629 -7.409308 -2.868919 10.798289 21.777690 1.004816 17.106708 -7.889006 -3.787051 0.000342 -0.414735 -0.016921
-85.558835 46.013675 160.192322 54.489260 -2.303508 5.800182 2.652210 7.847437 1.117937 1.156978 3.494092 0.450705 1.156992 3.494109 0.450703 0.864906 2.621460 0.331299 16.004945 21.332565 -6.652517 30.725302 6.620980 -16.173657 8.479874 5.721263 6.709373 4.504082 -18.579462 66.715310 -0.502362 23.159292 -3.077413 0.203199 0.114304 2.603300 -0.532297 8.750866 -9.651071 -6.755344 -20.972569 -77.521530 -7.394215 10.848123 3.100157 0.880932 2.667595 -1.803509 -36.347075 -17.043107 -16.396037 -20.471677 16.274400 -2.654528 -15.943615 -2.578944 1.996142 0.000000 0.000000 0.000000 17.892193 -6.606421 -3.666397 11.152965 21.607406 1.063721 17.537332 -8.431588 -3.402087 0.000474 -0.987594 -0.026985
-84.633965 45.965559 159.228956 55.479599 -2.873617 5.890812 2.548620 7.810274 1.005693 1.113042 3.476694 0.402911 1.113042 3.476694 0.402911 0.832231 2.608266 0.295753 15.793584 21.470998 -6.555958 30.297608 6.787350 -15.923285 8.236865 5.785961 6.619937 4.261198 -18.875277 67.284935 0.343637 22.911388 -2.897593 0.450803 -0.214156 2.189370 -0.557471 8.874822 -9.736666 -6.691145 -20.995469 -77.565110 -5.667904 11.561702 3.815953 1.192536 2.905253 -1.939742 -35.084097 -17.056358 -17.642159 -20.504072 17.353256 -3.102115 -15.545233 -4.726511 1.867659 0.000000 0.000000 0.000000 16.274197 -5.796364 -4.425654 11.512498 21.345050 1.099340 17.884665 -8.902533 -3.053879 -0.000473 -1.423086 0.061807
-83.732455 45.951760 158.294674 56.549696 -3.477239 5.888457 2.412679 7.779736 0.974213 1.053371 3.462669 0.391418 1.053362 3.462662 0.391419 0.787555 2.597674 0.287503 15.585480 21.658931 -6.534019 29.885373 7.067818 -15.794264 8.057535 5.780980 6.544519 4.226222 -18.909601 67.655388 1.361180 22.036819 -2.546537 0.822066 -0.598041 1.832575 -0.632828 8.963827 -9.849134 -6.576394 -20.945013 -77.762971 -3.830895 12.058660 4.786527 1.432980 3.110822 -1.881481 -33.359766 -16.790374 -18.862459 -20.758562 18.218031 -3.533066 -13.680179 -6.520081 1.848090 0.000000 0.000000 0.000000 14.569541 -4.967647 -5.061125 11.728492 20.985000 1.059889 18.216413 -9.291593 -2.830751 -0.003832 -1.585054 0.320502
-82.850528 45.972519 157.382757 57.733896 -4.093414 5.833402 2.229008 7.747668 0.984085 0.971852 3.448154 0.399056 0.971842 3.448184 0.399063 0.726402 2.586796 0.293724 15.375030 21.877258 -6.561394 29.475878 7.417607 -15.746177 7.920429 5.734950 6.485538 4.274107 -18.786572 67.894611 2.503965 20.729652 -2.096737 1.292421 -1.040005 1.481207 -0.736901 9.037618 -9.978841 -6.441263 -20.859398 -78.039074 -1.890674 12.358319 5.933274 1.635345 3.285388 -1.699232 -31.318867 -16.297843 -20.019307 -20.958166 18.969437 -3.925275 -11.025162 -8.177299 1.735604 0.000000 0.000000 0.000000 12.774229 -4.125262 -5.660326 11.947221 20.534167 0.999760 18.466267 -9.607225 -2.641202 -0.008176 -1.608608 0.678083
-81.997315 46.011558 156.517871 59.093875 -4.665641 5.714993 1.981003 7.705117 1.004316 0.861682 3.428741 0.412358 0.861682 3.428741 0.412358 0.643753 2.572144 0.304338 15.169219 22.066355 -6.580363 29.078558 7.713637 -15.692354 7.806377 5.699541 6.473895 4.361329 -18.649209 68.034225 3.458817 19.644758 -1.715356 1.775754 -1.445310 1.174720 -0.815317 9.103904 -10.077923 -6.276196 -20.745830 -78.284557 -0.089843 12.381508 6.953192 1.832349 3.404627 -1.473394 -29.352142 -15.624095 -20.901715 -20.099547 19.560567 -4.093879 -8.524357 -9.386955 1.144579 0.000000 0.000000 0.000000 11.326856 -3.300850 -6.225959 11.890772 20.042282 0.953414 18.457900 -9.856678 -2.400886 -0.012204 -1.605633 1.016193
-81.169797 46.069019 155.713427 60.699333 -5.180448 5.527411 1.632382 7.642022 1.026270 0.706930 3.399891 0.428110 0.706942 3.399824 0.428097 0.527674 2.550334 0.317034 14.974008 22.217864 -6.573598 28.701106 7.937691 -15.604161 7.708753 5.698619 6.541560 4.533386 -18.547184 68.027962 4.136173 19.008869 -1.387777 2.289074 -1.820880 0.922022 -0.842738 9.173547 -10.126261 -6.058107 -20.592961 -78.468052 1.485150 12.037230 7.705159 2.041111 3.443138 -1.160342 -27.671136 -14.761159 -21.408240 -17.425582 19.827683 -3.894647 -6.413404 -9.778787 -0.324530 0.000000 0.000000 0.000000 10.449521 -2.478027 -6.742170 11.397649 19.517316 0.937696 18.076406 -10.026133 -2.067035 -0.015335 -1.598204 1.294546
-80.370992 46.144760 154.956015 62.482331 -5.644969 5.274483 1.218949 7.568506 1.056821 0.523292 3.366424 0.448700 0.523305 3.366375 0.448688 0.389899 2.525143 0.333527 14.782545 22.339883 -6.558860 28.333838 8.107569 -15.509796 7.633398 5.705925 6.657756 4.745716 -18.426341 67.922639 4.646901 18.600743 -1.085546 2.808865 -2.166911 0.711097 -0.845263 9.233972 -10.143223 -5.812040 -20.414167 -78.617487 2.906050 11.441027 8.303686 2.237427 3.420640 -0.806441 -26.068046 -13.771576 -21.617275 -13.691532 19.923250 -3.472112 -4.444528 -9.462470 -2.078243 0.000000 0.000000 0.000000 9.917992 -1.658635 -7.185781 10.630315 18.960212 0.936389 17.438473 -10.120163 -1.680946 -0.017140 -1.564712 1.553264
